<?xml version="1.0" encoding="UTF-8"?>
<svg width="31px" height="32px" viewBox="0 0 31 32" version="1.1" xmlns="http://www.w3.org/2000/svg" xmlns:xlink="http://www.w3.org/1999/xlink">
    <!-- Generator: sketchtool 62 (101010) - https://sketch.com -->
    <title>A7590E2D-14ED-4A78-805C-99DD7A9EB68A</title>
    <desc>Created with sketchtool.</desc>
    <g id="Page-1" stroke="none" stroke-width="1" fill="none" fill-rule="evenodd">
        <g id="Home" transform="translate(-1657.000000, -3290.000000)" fill-rule="nonzero">
            <g id="facebook" transform="translate(1657.000000, 3290.000000)">
                <path d="M18.452381,31.2385958 C18.2072471,31.2783279 17.9612153,31.3149351 17.7142857,31.3484172 C17.9612153,31.3149351 18.2072471,31.2783279 18.452381,31.2385958 Z" id="Path" fill="#000000"></path>
                <path d="M18.5449751,31.2629262 C18.4832456,31.2843547 18.4215162,31.3039976 18.3597868,31.3240868 C18.4215162,31.3039976 18.4832456,31.2843547 18.5449751,31.2629262 Z" id="Path" fill="#000000"></path>
                <path d="M17.7142857,31.2510958 C17.4695307,31.2832387 17.2232436,31.3118101 16.9761905,31.3359172 C17.2232436,31.3118101 17.4695307,31.2832387 17.7142857,31.2510958 Z" id="Path" fill="#000000"></path>
                <path d="M17.8235539,31.2678368 C17.750945,31.2861405 17.677863,31.3031047 17.6050175,31.3191762 C17.677863,31.3031047 17.750945,31.2861405 17.8235539,31.2678368 Z" id="Path" fill="#000000"></path>
                <path d="M18.5342139,30.5338677 C18.4798163,30.5557427 18.4251821,30.5776178 18.370548,30.5985998 C18.4251821,30.5776178 18.4798163,30.5557427 18.5342139,30.5338677 Z" id="Path" fill="#000000"></path>
                <path d="M19.994558,30.5316355 C19.950567,30.5552962 19.9065759,30.5776177 19.8625848,30.600832 C19.9065759,30.5776177 19.950567,30.5552962 19.994558,30.5316355 Z" id="Path" fill="#000000"></path>
                <path d="M19.2623756,30.5309659 C19.2146003,30.5546266 19.1665885,30.5787338 19.1185768,30.6015016 C19.1665885,30.5787338 19.2146003,30.555073 19.2623756,30.5309659 Z" id="Path" fill="#000000"></path>
                <path d="M19.2668693,30.5338677 C19.2162559,30.5561892 19.1651695,30.5771713 19.114083,30.5985998 C19.1651695,30.5771713 19.2162559,30.5561892 19.2668693,30.5338677 Z" id="Path" fill="#000000"></path>
                <path d="M17.0987033,31.2760958 C17.0171069,31.2890422 16.9355105,31.3006494 16.8536777,31.3109172 C16.9355105,31.3006494 17.0171069,31.2890422 17.0987033,31.2760958 Z" id="Path" fill="#000000"></path>
                <path d="M31,15.6363636 C31,7.00195869 24.0591049,0 15.5,0 C6.9408951,0 0,7.00195869 0,15.6363636 C0,24.2707686 6.9408951,31.2727273 15.5,31.2727273 C15.5910568,31.2727273 15.6816406,31.2708185 15.7724609,31.2691484 L15.7724609,19.0969016 L12.4423828,19.0969016 L12.4423828,15.1818459 L15.7724609,15.1818459 L15.7724609,12.3008478 C15.7724609,8.95960582 17.7943954,7.14105776 20.7488937,7.14105776 C22.1637039,7.14105776 23.3798447,7.24746982 23.734375,7.29494963 L23.734375,10.7869818 L21.6970672,10.7869818 C20.089737,10.7869818 19.7784881,11.5576338 19.7784881,12.6883212 L19.7784881,15.1818459 L23.6217957,15.1818459 L23.1208649,19.0969016 L19.7784881,19.0969016 L19.7784881,30.6686124 C26.2572403,28.7949496 31,22.7736039 31,15.6363636 Z" id="Path" fill="#FFFFFF"></path>
                <path d="M16.9761905,31.2707387 C16.731117,31.2903814 16.4849655,31.3060064 16.2380952,31.3162743 C16.4849655,31.3060064 16.731117,31.2903814 16.9761905,31.2707387 Z" id="Path" fill="#000000"></path>
                <path d="M16.3667573,31.2874798 C16.2811403,31.2928368 16.1952867,31.2968547 16.1094331,31.2995332 C16.1952867,31.2968547 16.2811403,31.2928368 16.3667573,31.2874798 Z" id="Path" fill="#000000"></path>
            </g>
        </g>
    </g>
</svg>