<?xml version="1.0" encoding="UTF-8"?>
<svg width="32px" height="32px" viewBox="0 0 32 32" version="1.1" xmlns="http://www.w3.org/2000/svg" xmlns:xlink="http://www.w3.org/1999/xlink">
    <!-- Generator: sketchtool 62 (101010) - https://sketch.com -->
    <title>E03AEFD4-1F58-4E44-9ACC-795D0D900DE2</title>
    <desc>Created with sketchtool.</desc>
    <g id="Page-1" stroke="none" stroke-width="1" fill="none" fill-rule="evenodd" stroke-linecap="round" stroke-linejoin="round">
        <g id="Home" transform="translate(-1271.000000, -838.000000)" stroke="#FFFFFF" stroke-width="2.7">
            <g id="details" transform="translate(0.000000, 797.000000)">
                <g id="phone-call" transform="translate(1273.000000, 43.000000)">
                    <path d="M17.3378571,5.31428571 C19.9923289,5.83218498 22.067815,7.90767112 22.5857143,10.5621429 M17.3378571,0 C22.8906856,0.616874634 27.2761368,4.99680953 27.9,10.5488571 M26.5714286,21.1508571 L26.5714286,25.1365714 C26.5744654,25.8847499 26.2619352,26.599539 25.7106177,27.1053348 C25.1593003,27.6111306 24.4202907,27.8610571 23.6751429,27.7937143 C19.5869079,27.3494942 15.6598703,25.9525063 12.2095714,23.715 C8.9995145,21.6751963 6.2779466,18.9536284 4.23814286,15.7435714 C1.99282799,12.2775996 0.595522845,8.3314642 0.159428571,4.22485714 C0.0923001223,3.4820161 0.340475668,2.74516393 0.843331679,2.19429655 C1.34618769,1.64342916 2.05741806,1.32927383 2.80328571,1.3284408 L6.789,1.3284408 C8.1227051,1.31544493 9.25947969,2.29307108 9.44614286,3.61371429 C9.61437058,4.88923114 9.92635428,6.14162286 10.3761429,7.347 C10.7411479,8.31801968 10.5076915,9.41267118 9.77828571,10.1502857 L8.091,11.8375714 C9.98229513,15.1637109 12.7362891,17.9177049 16.0624286,19.809 L17.7497143,18.1217143 C18.4873288,17.3923085 19.5819803,17.1588521 20.553,17.5238571 C21.7583771,17.9736457 23.0107689,18.2856294 24.2862857,18.4538571 C25.6222476,18.6423287 26.6048953,19.8020816 26.5714286,21.1508571 L26.5714286,21.1508571 Z" id="Shape"></path>
                </g>
            </g>
        </g>
    </g>
</svg>