<?xml version="1.0" encoding="UTF-8"?>
<svg width="32px" height="32px" viewBox="0 0 19 19" version="1.1" xmlns="http://www.w3.org/2000/svg" xmlns:xlink="http://www.w3.org/1999/xlink">
    <!-- Generator: sketchtool 62 (101010) - https://sketch.com -->
    <title>5F42D682-23ED-465D-97AE-D5BA7B3243EC</title>
    <desc>Created with sketchtool.</desc>
    <g id="whats" stroke="none" stroke-width="1" fill="none" fill-rule="evenodd">
        <g id="Home" transform="translate(-793.000000, -75.000000)" fill="#FFFFFF" fill-rule="nonzero">
            <g id="whatsapp-(1)" transform="translate(793.000000, 75.000000)">
                <path d="M16.2317274,2.76116942 C14.4456419,0.981542969 12.0702927,0.00104369969 9.53973313,0 C4.32526787,0 0.0814505377,4.22339478 0.0793530843,9.41430053 C0.078653953,11.0736694 0.51422201,12.6934936 1.34212764,14.1212768 L0,19 L5.0150921,17.6907349 C6.39695451,18.4409241 7.95267129,18.8362549 9.53588783,18.8367187 L9.53984968,18.8367187 C14.7537323,18.8367187 18.9980157,14.6129761 19,9.42183839 C19.0010454,6.90605469 18.0179293,4.54067994 16.2317274,2.76116942 Z M9.53973313,17.246698 L9.53647045,17.246698 C8.12559345,17.2461182 6.74186662,16.8687622 5.53444118,16.1559143 L5.24744167,15.9862549 L2.27140942,16.7632324 L3.06575603,13.8755432 L2.8787344,13.57948 C2.09161234,12.3335327 1.67596993,10.893457 1.67666818,9.41488036 C1.67830042,5.10033569 5.20572596,1.59013672 9.54287929,1.59013672 C11.6431144,1.59083253 13.6173867,2.40584715 15.1019071,3.88500365 C16.5864275,5.36416016 17.4034964,7.33026122 17.4027976,9.42125854 C17.4009328,13.7361511 13.8737403,17.246698 9.53973313,17.246698 L9.53973313,17.246698 Z M13.8527659,11.3858521 C13.6164545,11.2680298 12.4542405,10.6990967 12.2375052,10.6204712 C12.0210029,10.5419617 11.8632289,10.5028809 11.7058045,10.7382935 C11.5481471,10.9737061 11.0952169,11.5036743 10.957252,11.6605774 C10.8192872,11.8175964 10.6815554,11.8373108 10.4451274,11.7194885 C10.2086995,11.6017822 9.44709625,11.3532654 8.54414896,10.5518189 C7.84150707,9.92803345 7.36713637,9.15766602 7.22917153,8.9222534 C7.09143971,8.68660887 7.2280063,8.57156981 7.3328782,8.44215089 C7.58876573,8.12590943 7.84500278,7.79436035 7.92377325,7.63745728 C8.00266027,7.48043823 7.9631585,7.34301758 7.90396412,7.22531127 C7.84500278,7.10760497 7.37226345,5.94967651 7.17533726,5.4785034 C6.9833051,5.0199707 6.78859292,5.08189699 6.64340354,5.07470703 C6.50567176,5.06786498 6.3480143,5.06647338 6.19035682,5.06647338 C6.03281588,5.06647338 5.77669534,5.12526855 5.55996002,5.36091309 C5.34334122,5.59644166 4.73275356,6.16549074 4.73275356,7.3234192 C4.73275356,8.48134766 5.57976915,9.59996339 5.69792487,9.75698242 C5.81608056,9.91400145 7.36480589,12.2901611 9.73596016,13.3090454 C10.2999381,13.5516479 10.7401671,13.6962585 11.0835644,13.8046875 C11.6498728,13.9837402 12.1650271,13.9584595 12.5723962,13.8979248 C13.0266082,13.8303162 13.9708051,13.3287598 14.1679643,12.7793091 C14.3648905,12.2297424 14.3648905,11.7588013 14.3056961,11.6605774 C14.2467348,11.5624695 14.0890774,11.5036743 13.8527659,11.3858521 L13.8527659,11.3858521 Z" id="Shape"></path>
            </g>
        </g>
    </g>
</svg>